<svg width="576" height="649" viewBox="0 0 576 649" fill="none" xmlns="http://www.w3.org/2000/svg">
<path d="M0 24.4753C0 13.1722 0 7.5207 3.51035 4.00673C7.02069 0.492763 12.6722 0.486937 23.9753 0.475286L476.965 0.00833684C480.973 0.00420577 482.976 0.00214024 484.842 0.628533C486.707 1.25492 488.303 2.46604 491.496 4.88828L520.799 27.12C523.986 29.5382 525.58 30.7473 527.442 31.3737C529.304 32 531.304 32 535.305 32H552C563.314 32 568.971 32 572.485 35.5147C576 39.0294 576 44.6863 576 56V624.521C576 635.826 576 641.478 572.489 644.992C568.978 648.506 563.326 648.511 552.021 648.521L24.0208 648.979C12.6981 648.989 7.0368 648.994 3.5184 645.479C0 641.963 0 636.302 0 624.979L0 24.4753Z" fill="white"/>
</svg>
